<svg width="32" height="32" viewBox="0 0 100 100" fill="none" xmlns="http://www.w3.org/2000/svg">
  <path d="M25 8L38 2L42 35C42 35 30 20 25 8Z" fill="#2d2d2d"/>
  <path d="M30 25C30 25 32 40 35 50C38 60 45 72 58 78C71 84 82 76 85 65C88 54 84 42 74 34C64 26 50 24 40 28L42 15C55 10 72 14 82 26C92 38 96 56 88 70C80 84 64 92 48 88C32 84 25 70 22 55C19 40 20 30 30 25Z" fill="#2d2d2d"/>
  <path d="M85 65C88 54 86 44 80 36C84 46 85 57 82 67C79 77 70 83 60 82C72 84 82 76 85 65Z" fill="#E5A817"/>
  <g stroke="#fff" stroke-width="1.5" opacity="0.85">
    <line x1="28" y1="38" x2="22" y2="68"/>
    <line x1="33" y1="35" x2="29" y2="70"/>
    <line x1="38" y1="33" x2="36" y2="72"/>
    <line x1="43" y1="34" x2="43" y2="72"/>
    <line x1="48" y1="36" x2="49" y2="70"/>
    <line x1="23" y1="44" x2="50" y2="39"/>
    <line x1="22" y1="51" x2="51" y2="46"/>
    <line x1="22" y1="58" x2="50" y2="53"/>
    <line x1="24" y1="65" x2="48" y2="60"/>
  </g>
  <ellipse cx="37" cy="53" rx="18" ry="22" stroke="#2d2d2d" stroke-width="3.5" fill="none" transform="rotate(-5 37 53)"/>
</svg>
